<?xml version="1.0" encoding="UTF-8"?>
<svg id="Layer_2" data-name="Layer 2" xmlns="http://www.w3.org/2000/svg" viewBox="0 0 304.61 71.24">
  <defs>
    <style>
      .cls-1 {
        fill: #328840;
      }
    </style>
  </defs>
  <g id="Layer_1-2" data-name="Layer 1">
    <polyline class="cls-1" points="19.36 55.34 0 55.34 15.51 0 55.19 0 51.41 13.13 31.16 13.13 28.56 22.55 48.81 22.55 45.4 34.64 25.15 34.64 19.36 55.34"/>
    <path class="cls-1" d="M64.17,55.35h-19.14L56.38,14.91h19.14l-11.35,40.43m12.39-44.29h-19.14L60.53,0h19.14l-3.11,11.06Z"/>
    <path class="cls-1" d="M113.82,55.34h-18.77l1.33-4.53c-3.78,3.19-7.64,5.49-13.8,5.49s-10.16-2.97-10.16-9.28c0-6.97,2.74-17.36,6.82-24.63,2.97-5.42,8.31-8.24,14.62-8.24,5.41,0,9.42,2.37,10.98,5.34L110.19,0h19.14l-15.5,55.34m-14.39-28.42c-1.71,0-3.42,.52-4.38,2.89-1.41,3.41-2.67,6.75-2.67,10.09,0,1.56,1.12,2.89,2.97,2.89,1.48,0,2.45-.44,3.26-.96l3.86-13.28c-.67-.96-1.86-1.63-3.04-1.63Z"/>
    <path class="cls-1" d="M167.87,37.69h-26.41c-.52,2.15-1.04,3.64-1.04,5.34,0,.82,.15,2.89,2.82,2.89s3.86-1.04,4.97-4.97h18.77c-2.37,11.5-16.02,15.43-24.41,15.43-11.35,0-20.18-1.63-20.18-12.54,0-6.01,3.04-15.95,7.04-21.22,4.82-6.31,13.21-8.68,20.92-8.68,11.87,0,19.59,2.45,19.59,12.53,0,2.45-1.04,7.87-2.08,11.2m-19.14-13.57c-2.37,0-4.01,1.63-5.05,5.71h7.87c.22-.81,.52-2.08,.52-2.82,0-2.22-1.34-2.89-3.34-2.89Z"/>
    <polyline class="cls-1" points="187.1 55.34 167.96 55.34 183.46 0 202.6 0 187.1 55.34"/>
    <path class="cls-1" d="M212.39,55.35h-19.14l11.35-40.43h19.14l-11.35,40.43m12.39-44.29h-19.14l3.11-11.06h19.14l-3.12,11.06Z"/>
    <path class="cls-1" d="M259.19,14.91l1.67,9.13h-14.65l-4.3,15.35c-.37,1.19-.67,2.67-.67,3.63,0,1.78,.74,2.38,3.34,2.38h4.08l-2.82,9.94h-17.06c-5.63,0-7.79-2.74-7.79-6.9,0-1.7,.22-3.56,.82-5.64l10.39-36.87h19.14l-2.52,8.98h10.39"/>
    <path class="cls-1" d="M289.81,47.21c-2.87,0-5.2,2.33-5.2,5.21s2.33,5.2,5.2,5.2,5.21-2.34,5.21-5.2-2.34-5.21-5.21-5.21m0,9.49c-2.36,0-4.28-1.92-4.28-4.28s1.92-4.28,4.28-4.28,4.28,1.91,4.28,4.28-1.92,4.28-4.28,4.28Z"/>
    <path class="cls-1" d="M291.89,51.34c0-1.04-.61-1.62-1.89-1.62h-2.02v5.36h.94v-2.2h.72l1.34,2.2h1.04l-1.4-2.27c.73-.09,1.29-.54,1.29-1.48m-2.98,.72v-1.5h.72c.61-.01,1.28,.02,1.28,.74s-.67,.76-1.28,.76h-.72Z"/>
    <path class="cls-1" d="M285.03,14.91l-10.39,22.41,.3-22.41h-19.37l3.71,40.43c-.47,2.37-1.26,3.7-2.74,4.36-1.63,.72-5.3,.59-6.59,.52h-.23s-3.06,11-3.06,11h13.07c7.72,.01,11.5-3.86,16.99-12.47l27.89-43.85h-19.58"/>
  </g>
</svg>