<?xml version="1.0" encoding="UTF-8"?>
<!-- Generator: Adobe Illustrator 16.0.3, SVG Export Plug-In . SVG Version: 6.00 Build 0)  -->
<!DOCTYPE svg PUBLIC "-//W3C//DTD SVG 1.1//EN" "http://www.w3.org/Graphics/SVG/1.1/DTD/svg11.dtd">
<svg version="1.1" id="Layer_1" xmlns="http://www.w3.org/2000/svg" xmlns:xlink="http://www.w3.org/1999/xlink" x="0px" y="0px" width="433.333px" height="101.667px" viewBox="0 0 433.333 101.667" enable-background="new 0 0 433.333 101.667" xml:space="preserve">
<g id="layer1" transform="translate(-365.24977,-524.73747)">
	<path id="path38495" fill="#FFFFFF" d="M415.302,614.623c23.351,0,42.271-18.926,42.271-42.276   c0-23.343-18.919-42.267-42.271-42.267c-23.346,0-42.27,18.924-42.27,42.267C373.033,595.696,391.959,614.623,415.302,614.623"/>
	<path id="path38499" fill="#231F20" d="M408.807,579.393h15.557l4.543,2.946h-20.786l-9.329,28.837   c-10.309-3.994-19.849-13.258-23.851-23.667c-4.266-10.085-4.266-22.757,0.093-32.881c4.088-10.416,13.903-19.82,24.352-23.683   c8.221-3.403,19.22-3.763,27.94-1.086c10.003,2.865,19.45,10.036,24.943,19.397c6.142,10.264,7.867,23.307,4.134,35.026   c-2.359,7.773-7.221,15.215-13.905,20.544l-11.484-19.134l15.983,8.913c0.088,0,0.137-0.097,0.088-0.19l-20.938-18.08l27.081,4.134   c0.093,0,0.132-0.043,0.132-0.09l-0.174-0.136l-25.537-8.954l26.534-6.408c0.09,0,0.09-0.084,0.046-0.134l-27.217,1.776   l21.312-16.136c0.046-0.088-0.142-0.133-0.186-0.043L424.2,562.483l13.215-23.318c0-0.036,0-0.136-0.083-0.083l-17.268,20.261   l3.314-26.622c0-0.05-0.093-0.093-0.183-0.05l-7.94,25.853l-6.957-26.627c-0.046-0.043-0.141-0.093-0.182,0l1.913,27.62   l-16.399-21.343c-0.055-0.048-0.095,0-0.142,0.045l12.406,23.62l-23.45-12.814c-0.044,0-0.134,0.05-0.134,0.088l20.852,17.129   l-26.617-2.811c-0.097,0.047-0.097,0.131,0,0.174l25.805,7.551l-25.669,7.542c-0.049,0.039-0.049,0.134,0,0.174l26.483-3.084   l-20.808,17.675c-0.044,0-0.088,0.088,0,0.14l0.278-0.093l16.665-8.725l3.914-6.225h4.444l-3.084-2.179l10.312-16.541l-6.083,19.54   L408.807,579.393"/>
	<path id="path38503" fill="#231F20" d="M485.588,601.171h-20.776l16.635-59.381h42.584l-4.057,14.091h-21.732l-2.788,10.108h21.732   l-3.663,12.973h-21.728L485.588,601.171z"/>
	<path id="path38507" fill="#231F20" d="M533.66,601.171h-20.532l12.176-43.383h20.533L533.66,601.171z M546.952,553.651H526.42   l3.342-11.859h20.531L546.952,553.651z"/>
	<path id="path38511" fill="#231F20" d="M586.932,601.171h-20.133l1.43-4.858c-4.063,3.424-8.196,5.89-14.805,5.89   c-6.69,0-10.902-3.186-10.902-9.952c0-7.479,2.945-18.625,7.322-26.423c3.184-5.811,8.911-8.836,15.677-8.836   c5.81,0,10.105,2.55,11.781,5.729l5.73-20.931h20.533L586.932,601.171L586.932,601.171z M571.492,570.681   c-1.835,0-3.661,0.563-4.694,3.107c-1.515,3.661-2.87,7.243-2.87,10.823c0,1.674,1.198,3.104,3.184,3.104   c1.594,0,2.628-0.478,3.504-1.027l4.141-14.251C574.037,571.398,572.764,570.683,571.492,570.681"/>
	<path id="path38515" fill="#231F20" d="M644.912,582.224h-28.331c-0.563,2.306-1.113,3.906-1.113,5.731   c0,0.878,0.156,3.105,3.023,3.105c2.865,0,4.139-1.113,5.333-5.332h20.132c-2.543,12.337-17.188,16.552-26.181,16.552   c-12.179,0-21.653-1.749-21.653-13.448c0-6.447,3.261-17.114,7.565-22.762c5.17-6.768,14.165-9.309,22.447-9.309   c12.733,0,21.008,2.623,21.008,13.443C647.139,572.835,646.03,578.642,644.912,582.224 M624.379,567.662   c-2.548,0-4.294,1.75-5.41,6.125h8.434c0.24-0.875,0.559-2.229,0.559-3.025C627.961,568.378,626.527,567.662,624.379,567.662"/>
	<path id="path38519" fill="#231F20" d="M665.549,601.171h-20.533l16.634-59.381h20.535L665.549,601.171z"/>
	<path id="path38523" fill="#231F20" d="M692.68,601.171h-20.538l12.179-43.383h20.537L692.68,601.171z M705.972,553.651H685.44   l3.342-11.859h20.535L705.972,553.651z"/>
	<path id="path38527" fill="#231F20" d="M742.888,557.79l1.788,9.791h-15.718l-4.616,16.476c-0.396,1.274-0.718,2.863-0.718,3.901   c0,1.908,0.799,2.548,3.582,2.548h4.379l-3.025,10.667h-18.307c-6.051,0-8.358-2.946-8.358-7.406c0-1.824,0.242-3.819,0.88-6.046   l11.143-39.554h20.535l-2.709,9.628h11.145"/>
	<path id="path38531" fill="#231F20" d="M464.396,607.839l5.118-0.007l-3.263,10.677l-5.103,0.002L464.396,607.839L464.396,607.839z   "/>
	<path id="path38535" fill="#231F20" d="M482.26,607.848l7.484-0.005l1.921,7.121h0.051l2.169-7.123l4.441-0.005l-3.283,10.655   l-7.165,0.027l-2.076-7.609h-0.035l-2.271,7.594l-4.444,0.002L482.26,607.848L482.26,607.848z"/>
	<path id="path38539" fill="#231F20" d="M508.034,607.852l5.637-0.002l0.986,6.709l5.155-6.714l5.218-0.007l-8.601,10.658   l-6.254,0.005L508.034,607.852L508.034,607.852z"/>
	<path id="path38543" fill="#231F20" d="M534.838,607.857l11.644-0.009l-0.658,2.156l-6.694,0.007l-0.647,2.19l6.275-0.003   l-0.628,2.058l-6.275,0.002l-0.648,2.113l6.764-0.007l-0.681,2.161l-11.707,0.009L534.838,607.857z"/>
	<path id="path38547" fill="#231F20" d="M584.848,610.457l-3.989,0.002l0.791-2.591l13.084-0.011l-0.79,2.589l-3.983,0.004   l-2.446,8.035l-5.114,0.007L584.848,610.457L584.848,610.457z"/>
	<path id="path38551" fill="#231F20" d="M605.326,607.841l7.755-0.005l0.373,7.123h0.034l4.623-7.125l7.793-0.012l-3.236,10.679   l-4.745,0.004l2.433-8.042h-0.037l-5.761,8.047l-4.944,0.007l-0.699-8.045h-0.052l-2.43,8.022l-4.34,0.002L605.326,607.841   L605.326,607.841z"/>
	<path id="path38555" fill="#231F20" d="M658.487,607.848l7.483-0.005l1.923,7.121h0.05l2.168-7.126l4.439-0.002l-3.247,10.679   l-7.257-0.021l-2.016-7.59h-0.034l-2.326,7.592l-4.439,0.005L658.487,607.848z"/>
	<path id="path38559" fill="#231F20" d="M686.824,610.441l-3.992,0.002l0.788-2.593l13.09-0.009l-0.79,2.586l-3.987,0.005   l-2.444,8.063l-5.119,0.009L686.824,610.441L686.824,610.441z"/>
	<path id="path38565" fill="#231F20" d="M562.171,611.084c-0.113-0.12-0.118-0.323-0.071-0.488c0.166-0.539,0.845-0.896,1.924-0.896   c0.638-0.002,1.618,0.068,1.898,0.292c0.299,0.217,0.394,0.545,0.29,0.866h4.533c0.531-1.907-0.667-3.136-5.784-3.134   c-4.864,0.009-7.621,1.048-8.333,3.374c-0.181,0.611-0.206,1.355,0.296,1.862c1.253,1.244,6.907,1.74,7.387,2.412   c0.095,0.136,0.135,0.299,0.074,0.489c-0.259,0.857-1.474,1.079-2.535,1.079c-0.674,0-1.55-0.147-1.8-0.423   c-0.239-0.281-0.239-0.713-0.102-0.987l-4.743,0.009c-0.48,1.657-0.682,3.374,5.917,3.372c5.531-0.007,8.063-1.362,8.704-3.469   c0.316-1.027,0.002-1.598-0.355-1.969C568.242,612.211,562.764,611.745,562.171,611.084"/>
	<path id="path38569" fill="#231F20" d="M636.318,607.859l11.645-0.009l-0.652,2.158l-6.7,0.005l-0.645,2.188l6.273-0.003   l-0.627,2.058l-6.275,0.002l-0.649,2.118l6.764-0.005l-0.681,2.156l-11.706,0.012L636.318,607.859L636.318,607.859z"/>
	<path id="path38573" fill="#231F20" d="M770.608,557.79l-11.143,24.038l0.321-24.038h-20.774l3.98,43.381   c-0.512,2.541-1.349,3.971-2.944,4.679c-1.745,0.776-5.687,0.641-7.076,0.562l-0.249,0.014l-3.273,11.785l14.016,0.016   c8.279,0,12.339-4.164,18.227-13.392l29.931-47.044H770.608"/>
	<path id="path38577" fill="#231F20" d="M709.987,611.059c-0.113-0.123-0.113-0.326-0.07-0.489c0.17-0.543,0.844-0.9,1.926-0.9   c0.638,0,1.615,0.07,1.896,0.296c0.303,0.216,0.398,0.544,0.289,0.867h4.535c0.534-1.907-0.665-3.139-5.784-3.134   c-4.865,0.004-7.621,1.047-8.329,3.373c-0.184,0.609-0.208,1.355,0.292,1.858c1.253,1.247,6.908,1.744,7.388,2.414   c0.1,0.136,0.134,0.301,0.075,0.493c-0.259,0.854-1.476,1.073-2.53,1.077c-0.679,0-1.555-0.146-1.806-0.428   c-0.237-0.282-0.237-0.708-0.104-0.981l-4.742,0.004c-0.476,1.656-0.679,3.377,5.919,3.374c5.533-0.009,8.065-1.362,8.705-3.471   c0.315-1.027,0.003-1.598-0.357-1.967C716.06,612.183,710.584,611.717,709.987,611.059"/>
	<path id="path38645" fill="#231F20" d="M773.848,600.372c-2.06,0-3.72-1.666-3.72-3.716c0-2.055,1.665-3.72,3.72-3.72   c2.053,0,3.716,1.668,3.716,3.72C777.564,598.706,775.901,600.372,773.848,600.372 M773.848,592.131   c-2.494,0-4.521,2.032-4.521,4.523c0,2.489,2.027,4.521,4.521,4.521c2.486,0,4.519-2.032,4.519-4.521   C778.366,594.162,776.334,592.131,773.848,592.131"/>
	<path id="path38649" fill="#231F20" d="M773.072,596.341v-1.306h0.622c0.53-0.014,1.109,0.022,1.109,0.647   c0,0.627-0.579,0.659-1.109,0.659H773.072L773.072,596.341z M775.658,595.719c0-0.901-0.525-1.405-1.647-1.405h-1.756v4.661h0.816   v-1.907h0.622l1.168,1.907h0.896l-1.22-1.978C775.176,596.921,775.658,596.525,775.658,595.719"/>
	<path id="path38653" fill="#231F20" d="M770.578,557.896l-11.108,23.957l0.321-23.957h-20.703l3.965,43.229   c-0.507,2.53-1.344,3.956-2.93,4.662c-1.738,0.771-5.667,0.636-7.052,0.557l-0.249,0.014l-3.263,11.748l13.966,0.012   c8.255,0,12.299-4.146,18.166-13.344l29.824-46.879L770.578,557.896L770.578,557.896z"/>
</g>
</svg>